<svg xmlns="http://www.w3.org/2000/svg" width="36.66" height="30.934" viewBox="0 0 36.66 30.934">
  <path id="Path_29" data-name="Path 29" d="M6.1,14.742a102.173,102.173,0,0,0-.83,10.73,82.2,82.2,0,0,1,13.915,7.455A82.194,82.194,0,0,1,33.1,25.472a102.214,102.214,0,0,0-.83-10.73m-26.173,0Q3.867,13.993,1.6,13.367a101.273,101.273,0,0,1,17.58-9.874,101.269,101.269,0,0,1,17.58,9.873q-2.272.629-4.493,1.376m-26.173,0a85.739,85.739,0,0,1,13.086,5.65,85.715,85.715,0,0,1,13.085-5.65m-21.96,8.2a1.268,1.268,0,1,0-1.268-1.268A1.268,1.268,0,0,0,10.306,22.946Zm0,0V16.733a93.618,93.618,0,0,1,8.875-4.872M7.335,31.387a10.111,10.111,0,0,0,2.97-7.173V21.678" transform="translate(-0.851 -2.743)" fill="none" stroke="#8d8d8d" stroke-linecap="round" stroke-linejoin="round" stroke-width="1.5"/>
</svg>
