<svg xmlns="http://www.w3.org/2000/svg" width="27.521" height="19.515" viewBox="0 0 27.521 19.515">
  <path id="Path_30" data-name="Path 30" d="M21.265,6.251v1m0,4v1m0,4v1m0,4v1M9.256,15.258h7.006m-7.006,3h4M3.751,5.25a1.5,1.5,0,0,0-1.5,1.5v4.038a4,4,0,0,1,0,6.936v4.038a1.5,1.5,0,0,0,1.5,1.5H26.77a1.5,1.5,0,0,0,1.5-1.5V17.725a4,4,0,0,1,0-6.936V6.751a1.5,1.5,0,0,0-1.5-1.5Z" transform="translate(-1.5 -4.5)" fill="none" stroke="#8d8d8d" stroke-linecap="round" stroke-linejoin="round" stroke-width="1.5"/>
</svg>
