<svg xmlns="http://www.w3.org/2000/svg" width="29.358" height="25.072" viewBox="0 0 29.358 25.072">
  <path id="Path_32" data-name="Path 32" d="M27.965,9.107,27.072,24.3a3.214,3.214,0,0,1-3.21,3.026H8.5A3.214,3.214,0,0,1,5.286,24.3L4.393,9.107m11.786,4.286v9.643m0,0-4.286-4.286m4.286,4.286,4.286-4.286M3.857,9.107H28.5A1.608,1.608,0,0,0,30.108,7.5V5.357A1.608,1.608,0,0,0,28.5,3.75H3.857A1.608,1.608,0,0,0,2.25,5.357V7.5A1.608,1.608,0,0,0,3.857,9.107Z" transform="translate(-1.5 -3)" fill="none" stroke="#8d8d8d" stroke-linecap="round" stroke-linejoin="round" stroke-width="1.5"/>
</svg>
