<svg xmlns="http://www.w3.org/2000/svg" width="56.654" height="47.878" viewBox="0 0 56.654 47.878">
  <path id="Path_33" data-name="Path 33" d="M2.25,44.8a169.9,169.9,0,0,1,44.68,5.942,3.242,3.242,0,0,0,4.11-3.1V44.8M6.493,4.5V6.621A2.121,2.121,0,0,1,4.371,8.743H2.25m0,0V7.682A3.183,3.183,0,0,1,5.432,4.5H53.16M2.25,8.743V34.2M53.16,4.5V6.621a2.122,2.122,0,0,0,2.121,2.121H57.4M53.16,4.5h1.061A3.183,3.183,0,0,1,57.4,7.682V35.258a3.183,3.183,0,0,1-3.182,3.182H53.16M57.4,34.2H55.282a2.121,2.121,0,0,0-2.121,2.121V38.44m0,0H6.493m0,0H5.432A3.182,3.182,0,0,1,2.25,35.258V34.2M6.493,38.44V36.319A2.121,2.121,0,0,0,4.371,34.2H2.25M38.312,21.47a8.485,8.485,0,1,1-8.485-8.485,8.485,8.485,0,0,1,8.485,8.485Zm8.485,0h.023v.023H46.8Zm-33.94,0h.023v.023h-.023Z" transform="translate(-1.499 -3.75)" fill="none" stroke="#fff" stroke-linecap="round" stroke-linejoin="round" stroke-width="1.5"/>
</svg>
